Exact Audio Copy V0.99 prebeta 1 from 25. May 2007

EAC 抓取日志文件从29. 十月 2010, 19:10

李春波 / 20世纪中华歌坛名人百集珍藏版

使用驱动器  ：PIONEER DVD-RW  DVR-115   Adapter: 0  ID: 0

读取模式     : 保护
使用精确流   : 是
废除音频缓冲 : 是
使用 C2 指针 : 否

读取偏移校正                   : 38
读取 Lead-In 和 Lead-Out       : 否
用静音填充抓取中丢失偏移的采样 : 是
去除首尾静音块                 : 否
已用接口                       : 已安装外部 ASPI 接口

所用输出格式 : 内部 WAV 函数
样本格式     : 44.100 Hz;16 Bit;立体声


被抓轨 CD 的 TOC

     音轨 |   开始   |   长度   | 起始扇区 | 结尾扇区 
    --------------------------------------------------
       1  |  0:00.00 |  4:36.47 |       0  |   20746  
       2  |  4:36.47 |  3:47.28 |   20747  |   37799  
       3  |  8:24.00 |  3:29.20 |   37800  |   53494  
       4  | 11:53.20 |  5:32.70 |   53495  |   78464  
       5  | 17:26.15 |  4:17.05 |   78465  |   97744  
       6  | 21:43.20 |  2:46.45 |   97745  |  110239  
       7  | 24:29.65 |  3:34.15 |  110240  |  126304  
       8  | 28:04.05 |  4:03.20 |  126305  |  144549  
       9  | 32:07.25 |  3:54.70 |  144550  |  162169  
      10  | 36:02.20 |  5:05.05 |  162170  |  185049  
      11  | 41:07.25 |  4:16.37 |  185050  |  204286  
      12  | 45:23.62 |  3:48.73 |  204287  |  221459  
      13  | 49:12.60 |  4:22.37 |  221460  |  241146  
      14  | 53:35.22 |  4:15.65 |  241147  |  260336  


范围状态及错误

已选择范围

     文件名 E:\文件夹\20世纪中华歌坛名人百集珍藏版-李春波[lwg188原创]\李春波 - 20世纪中华歌坛名人百集珍藏版.wav

     峰值电平 100.0 %
     范围质量 100.0 %
     复制 CRC 5C056B0C
     复制成功

没有错误发生

状态报告结尾
